PathFileType	4	(X/Y/Z)	markers.trc
DataRate	CameraRate	NumFrames	NumMarkers	Units	OrigDataRate	OrigDataStartFrame	OrigNumFrames
59.94	59.94	29	12	m	59.94	64	507
Frame#	Time	LEFT_SHOULDER			RIGHT_SHOULDER			LEFT_HIP			RIGHT_HIP			LEFT_KNEE			RIGHT_KNEE			LEFT_ANKLE			RIGHT_ANKLE			LEFT_HEEL			RIGHT_HEEL			LEFT_FOOT_INDEX			RIGHT_FOOT_INDEX		
		X1	Y1	Z1	X2	Y2	Z2	X3	Y3	Z3	X4	Y4	Z4	X5	Y5	Z5	X6	Y6	Z6	X7	Y7	Z7	X8	Y8	Z8	X9	Y9	Z9	X10	Y10	Z10	X11	Y11	Z11	X12	Y12	Z12

64	1.051050	6.307743	2.024962	0.000000	6.636949	1.961293	0.000000	6.453046	2.588828	0.000000	6.677191	2.558362	0.000000	6.509691	3.005856	0.000000	6.674920	3.000916	0.000000	6.532665	3.403720	0.000000	6.940312	3.374537	0.000000	6.575344	3.485230	0.000000	7.003182	3.411517	0.000000	6.359475	3.494550	0.000000	6.868025	3.577909	0.000000
65	1.067733	6.301828	2.025296	0.000000	6.630671	1.961337	0.000000	6.448147	2.590254	0.000000	6.670814	2.561158	0.000000	6.507980	3.005341	0.000000	6.655819	3.000986	0.000000	6.532309	3.403537	0.000000	6.904509	3.384502	0.000000	6.575114	3.484898	0.000000	6.967540	3.426291	0.000000	6.357460	3.494570	0.000000	6.821295	3.577807	0.000000
66	1.084417	6.296873	2.025683	0.000000	6.624431	1.961444	0.000000	6.443620	2.592273	0.000000	6.664061	2.564835	0.000000	6.506265	3.005285	0.000000	6.637678	3.001350	0.000000	6.531929	3.403683	0.000000	6.867779	3.396802	0.000000	6.574990	3.484743	0.000000	6.930397	3.443802	0.000000	6.355225	3.494674	0.000000	6.773668	3.577956	0.000000
67	1.101100	6.292865	2.026042	0.000000	6.618146	1.961607	0.000000	6.439404	2.594785	0.000000	6.656834	2.569237	0.000000	6.504426	3.005732	0.000000	6.620781	3.002089	0.000000	6.531564	3.404252	0.000000	6.830223	3.410832	0.000000	6.574969	3.484909	0.000000	6.891652	3.463271	0.000000	6.353097	3.494937	0.000000	6.725191	3.578284	0.000000
68	1.117783	6.289651	2.026322	0.000000	6.611827	1.961817	0.000000	6.435397	2.597533	0.000000	6.649125	2.573983	0.000000	6.502355	3.006647	0.000000	6.605369	3.003271	0.000000	6.531275	3.405398	0.000000	6.791960	3.425591	0.000000	6.575024	3.485595	0.000000	6.851285	3.483563	0.000000	6.351409	3.495439	0.000000	6.676249	3.578685	0.000000
69	1.134467	6.287013	2.026507	0.000000	6.605580	1.962064	0.000000	6.431469	2.600166	0.000000	6.641005	2.578582	0.000000	6.500059	3.007915	0.000000	6.591549	3.004936	0.000000	6.531104	3.407325	0.000000	6.753272	3.439886	0.000000	6.575090	3.487062	0.000000	6.809586	3.503376	0.000000	6.350360	3.496261	0.000000	6.627482	3.579000	0.000000
70	1.151150	6.284735	2.026611	0.000000	6.599543	1.962337	0.000000	6.427496	2.602394	0.000000	6.632584	2.582623	0.000000	6.497721	3.009396	0.000000	6.579201	3.007076	0.000000	6.531047	3.410239	0.000000	6.714683	3.452623	0.000000	6.575056	3.489604	0.000000	6.767298	3.521525	0.000000	6.349963	3.497484	0.000000	6.579485	3.578994	0.000000
71	1.167833	6.282611	2.026669	0.000000	6.593832	1.962630	0.000000	6.423356	2.604095	0.000000	6.623973	2.585881	0.000000	6.495621	3.011013	0.000000	6.567965	3.009636	0.000000	6.531046	3.414250	0.000000	6.676957	3.463057	0.000000	6.574766	3.493467	0.000000	6.725525	3.537173	0.000000	6.350064	3.499172	0.000000	6.532724	3.578367	0.000000
72	1.184517	6.280455	2.026714	0.000000	6.588516	1.962946	0.000000	6.418897	2.605296	0.000000	6.615219	2.588301	0.000000	6.493956	3.012776	0.000000	6.557364	3.012502	0.000000	6.531006	3.419272	0.000000	6.641051	3.470917	0.000000	6.574034	3.498691	0.000000	6.685495	3.549918	0.000000	6.350378	3.501318	0.000000	6.487814	3.576817	0.000000
73	1.201200	6.278123	2.026768	0.000000	6.583619	1.963293	0.000000	6.413885	2.606097	0.000000	6.606225	2.589947	0.000000	6.492714	3.014711	0.000000	6.546986	3.015528	0.000000	6.530819	3.424965	0.000000	6.607941	3.476393	0.000000	6.572693	3.504940	0.000000	6.648342	3.559761	0.000000	6.350532	3.503786	0.000000	6.445782	3.574187	0.000000
74	1.217883	6.275524	2.026828	0.000000	6.579132	1.963682	0.000000	6.408028	2.606621	0.000000	6.596737	2.590965	0.000000	6.491661	3.016789	0.000000	6.536600	3.018583	0.000000	6.530399	3.430747	0.000000	6.578403	3.479999	0.000000	6.570657	3.511428	0.000000	6.614996	3.567015	0.000000	6.350186	3.506310	0.000000	6.407959	3.570619	0.000000
75	1.234567	6.272613	2.026867	0.000000	6.575037	1.964129	0.000000	6.401094	2.606969	0.000000	6.586530	2.591528	0.000000	6.490394	3.018891	0.000000	6.526149	3.021562	0.000000	6.529728	3.435916	0.000000	6.552884	3.482394	0.000000	6.568028	3.517033	0.000000	6.586124	3.572213	0.000000	6.349224	3.508574	0.000000	6.375571	3.566615	0.000000
76	1.251250	6.269413	2.026837	0.000000	6.571343	1.964653	0.000000	6.393052	2.607195	0.000000	6.575594	2.591793	0.000000	6.488402	3.020837	0.000000	6.515611	3.024365	0.000000	6.528893	3.439872	0.000000	6.531471	3.484225	0.000000	6.565164	3.520638	0.000000	6.562071	3.576013	0.000000	6.347878	3.510312	0.000000	6.349368	3.562888	0.000000
77	1.267933	6.266019	2.026674	0.000000	6.568084	1.965278	0.000000	6.384045	2.607311	0.000000	6.564087	2.591877	0.000000	6.485128	3.022452	0.000000	6.504882	3.026904	0.000000	6.528066	3.442316	0.000000	6.513937	3.485978	0.000000	6.562601	3.521537	0.000000	6.542866	3.579034	0.000000	6.346708	3.511379	0.000000	6.329457	3.560071	0.000000
78	1.284617	6.262565	2.026304	0.000000	6.565279	1.966019	0.000000	6.374251	2.607307	0.000000	6.552208	2.591867	0.000000	6.480044	3.023644	0.000000	6.493810	3.029136	0.000000	6.527419	3.443265	0.000000	6.499893	3.487873	0.000000	6.560826	3.519674	0.000000	6.528327	3.581684	0.000000	6.346396	3.511743	0.000000	6.315347	3.558519	0.000000
79	1.301300	6.259174	2.025660	0.000000	6.562894	1.966865	0.000000	6.363790	2.607173	0.000000	6.540186	2.591827	0.000000	6.472750	3.024446	0.000000	6.482342	3.031054	0.000000	6.527033	3.442925	0.000000	6.488940	3.489844	0.000000	6.560087	3.515627	0.000000	6.518093	3.584114	0.000000	6.347494	3.511446	0.000000	6.306118	3.558317	0.000000
80	1.317983	6.255969	2.024697	0.000000	6.560848	1.967797	0.000000	6.352727	2.606901	0.000000	6.528285	2.591799	0.000000	6.463029	3.025001	0.000000	6.470580	3.032677	0.000000	6.526870	3.441543	0.000000	6.480712	3.491669	0.000000	6.560373	3.510293	0.000000	6.511575	3.586303	0.000000	6.350282	3.510558	0.000000	6.300648	3.559356	0.000000
81	1.334667	6.253086	2.023414	0.000000	6.559047	1.968786	0.000000	6.341107	2.606494	0.000000	6.516771	2.591797	0.000000	6.450820	3.025532	0.000000	6.458754	3.034051	0.000000	6.526800	3.439281	0.000000	6.474831	3.493124	0.000000	6.561463	3.504382	0.000000	6.507961	3.588148	0.000000	6.354803	3.509154	0.000000	6.297813	3.561388	0.000000
82	1.351350	6.250634	2.021852	0.000000	6.557409	1.969801	0.000000	6.329019	2.605968	0.000000	6.505886	2.591815	0.000000	6.436113	3.026296	0.000000	6.447174	3.035250	0.000000	6.526617	3.436144	0.000000	6.470897	3.494087	0.000000	6.562972	3.498105	0.000000	6.506378	3.589483	0.000000	6.360958	3.507328	0.000000	6.296638	3.564065	0.000000
83	1.368033	6.248643	2.020083	0.000000	6.555859	1.970786	0.000000	6.316614	2.605359	0.000000	6.495778	2.591846	0.000000	6.418917	3.027534	0.000000	6.436220	3.036366	0.000000	6.526048	3.432037	0.000000	6.468534	3.494538	0.000000	6.564394	3.491262	0.000000	6.506054	3.590127	0.000000	6.368485	3.505241	0.000000	6.296391	3.567019	0.000000
84	1.384717	6.247057	2.018171	0.000000	6.554319	1.971665	0.000000	6.304080	2.604732	0.000000	6.486464	2.591917	0.000000	6.399292	3.029402	0.000000	6.426356	3.037508	0.000000	6.524718	3.426892	0.000000	6.467408	3.494530	0.000000	6.565157	3.483546	0.000000	6.506393	3.589982	0.000000	6.376844	3.503193	0.000000	6.296582	3.569937	0.000000
85	1.401400	6.245778	2.016122	0.000000	6.552709	1.972360	0.000000	6.291633	2.604169	0.000000	6.477865	2.592104	0.000000	6.377416	3.031865	0.000000	6.418095	3.038778	0.000000	6.522123	3.420744	0.000000	6.467178	3.494155	0.000000	6.564691	3.474750	0.000000	6.507002	3.589098	0.000000	6.385142	3.501597	0.000000	6.296903	3.572626	0.000000
86	1.418083	6.244712	2.013881	0.000000	6.550946	1.972823	0.000000	6.279558	2.603756	0.000000	6.469890	2.592527	0.000000	6.353591	3.034591	0.000000	6.411862	3.040224	0.000000	6.517692	3.413608	0.000000	6.467484	3.493523	0.000000	6.562499	3.464674	0.000000	6.507706	3.587660	0.000000	6.392174	3.500816	0.000000	6.297147	3.575051	0.000000
87	1.434767	6.243810	2.011361	0.000000	6.548932	1.973043	0.000000	6.268244	2.603559	0.000000	6.462516	2.593333	0.000000	6.328101	3.036904	0.000000	6.407873	3.041817	0.000000	6.510964	3.405261	0.000000	6.467998	3.492765	0.000000	6.558277	3.452883	0.000000	6.508489	3.585937	0.000000	6.396678	3.501004	0.000000	6.297168	3.577340	0.000000
88	1.451450	6.243058	2.008482	0.000000	6.546566	1.973029	0.000000	6.258117	2.603611	0.000000	6.455819	2.594654	0.000000	6.301015	3.037908	0.000000	6.406123	3.043458	0.000000	6.501727	3.395240	0.000000	6.468491	3.492034	0.000000	6.551978	3.438769	0.000000	6.509396	3.584206	0.000000	6.397695	3.502045	0.000000	6.296862	3.579718	0.000000
89	1.468133	6.242410	2.005219	0.000000	6.543741	1.972817	0.000000	6.249492	2.603912	0.000000	6.449940	2.596557	0.000000	6.272332	3.036783	0.000000	6.406435	3.045013	0.000000	6.489956	3.383267	0.000000	6.468880	3.491495	0.000000	6.543659	3.422160	0.000000	6.510451	3.582678	0.000000	6.394663	3.503592	0.000000	6.296166	3.582378	0.000000
90	1.484817	6.241736	2.001644	0.000000	6.540347	1.972469	0.000000	6.242423	2.604420	0.000000	6.444990	2.598990	0.000000	6.242507	3.033104	0.000000	6.408517	3.046355	0.000000	6.475613	3.369874	0.000000	6.469212	3.491295	0.000000	6.533115	3.404131	0.000000	6.511598	3.581458	0.000000	6.387099	3.505219	0.000000	6.295077	3.585371	0.000000
91	1.501500	6.240812	1.997918	0.000000	6.536282	1.972062	0.000000	6.236695	2.605056	0.000000	6.440955	2.601792	0.000000	6.212755	3.027057	0.000000	6.411969	3.047412	0.000000	6.458591	3.356602	0.000000	6.469595	3.491551	0.000000	6.519778	3.387115	0.000000	6.512705	3.580553	0.000000	6.374295	3.506609	0.000000	6.293642	3.588616	0.000000
92	1.518183	6.239342	1.994226	0.000000	6.531460	1.971672	0.000000	6.231942	2.605720	0.000000	6.437654	2.604744	0.000000	6.184612	3.019375	0.000000	6.416267	3.048218	0.000000	6.438900	3.345345	0.000000	6.470100	3.492339	0.000000	6.503088	3.373794	0.000000	6.513631	3.579919	0.000000	6.355511	3.507632	0.000000	6.291937	3.591997	0.000000
